<?xml version="1.0" encoding="UTF-8"?>
<svg xmlns="http://www.w3.org/2000/svg" viewBox="0 0 64 64" id="b13-aim-configuration">
  <rect width="64" height="64" rx="4" ry="4" fill="#ffc857"/>
  <g fill="#131313">
    <path d="M53.08 35.67a21.9 21.9 0 0 0 0-7.34l-5.02-1.02a17.24 17.24 0 0 0-1.62-3.9l2.84-4.28a22.14 22.14 0 0 0-5.2-5.2l-4.28 2.84a17.24 17.24 0 0 0-3.9-1.62L34.87 10.1a21.9 21.9 0 0 0-7.34 0l-1.02 5.02a17.24 17.24 0 0 0-3.9 1.62l-4.28-2.84a22.14 22.14 0 0 0-5.2 5.2l2.84 4.28a17.24 17.24 0 0 0-1.62 3.9L9.3 28.33a21.9 21.9 0 0 0 0 7.34l5.02 1.02a17.24 17.24 0 0 0 1.62 3.9l-2.84 4.28a22.14 22.14 0 0 0 5.2 5.2l4.28-2.84a17.24 17.24 0 0 0 3.9 1.62l1.02 5.02a21.9 21.9 0 0 0 7.34 0l1.02-5.02a17.24 17.24 0 0 0 3.9-1.62l4.28 2.84a22.14 22.14 0 0 0 5.2-5.2l-2.84-4.28a17.24 17.24 0 0 0 1.62-3.9l5.06-1.02ZM31.2 40.2a8.2 8.2 0 1 1 0-16.4 8.2 8.2 0 0 1 0 16.4Z"/>
    <circle cx="31.2" cy="32" r="4.1"/>
  </g>
</svg>
