<?xml version="1.0" encoding="UTF-8"?>
<svg xmlns="http://www.w3.org/2000/svg" viewBox="0 0 64 64" id="b13-aim">
  <defs>
    <style>
      #b13-aim .cls-1 {
        fill: #ffc857;
      }

      #b13-aim .cls-2 {
        fill: #131313;
      }
    </style>
  </defs>
  <g id="BG-Color">
    <rect class="cls-1" width="64" height="64" rx="4" ry="4"/>
  </g>
  <g id="ExtentionIcons">
    <g>
      <circle class="cls-2" cx="32" cy="27" r="3"/>
      <path class="cls-2" d="M17.41626,29.999268c.32959-.177002.682617-.317505,1.069092-.422974.421631-.112061.855957-.168945,1.291016-.168945.499756,0,.996338.074707,1.493408.227539.022705.007202.046631.019165.06958.026733-.213623-.854004-.339355-1.742432-.339355-2.661621,0-6.06543,4.93457-11,11-11s11,4.93457,11,11c0,1.520142-.310303,2.968994-.870361,4.287231l1.959961,1.959595,2.373291-2.373169c.004639-.004517.010254-.00769.014648-.012207.329834-1.234497.522461-2.524414.522461-3.86145,0-8.271484-6.728516-15-15-15s-15,6.728516-15,15c0,1.050049.110596,2.074219.316895,3.063965.034424-.019531.064209-.046021.099365-.064697Z"/>
      <path class="cls-2" d="M27.395508,34.718994c.0625-.232178.12793-.463867.213135-.667725.128906-.310913.281006-.597656.452881-.853271.179443-.272827.395996-.538696.640625-.783325.362305-.357666.793945-.63501,1.251953-.863525-1.737061-.784546-2.954102-2.52478-2.954102-4.551147,0-2.756836,2.243164-5,5-5s5,2.243164,5,5c0,1.077026-.350098,2.069336-.931641,2.886353.068359-.032104.131348-.071411.201904-.100586.609131-.250977,1.251221-.378174,1.908936-.378174.817383.000122,1.594482.216431,2.298828.583984.332031-.937622.521973-1.94165.521973-2.991577,0-4.962891-4.037109-9-9-9s-9,4.037109-9,9c0,3.279053,1.768066,6.145508,4.395508,7.718994Z"/>
    </g>
    <g>
      <path d="M32.222656,38.643555c-1.104492,0-2,.895508-2,2v9.355469c0,1.104492.895508,2,2,2s2-.895508,2-2v-9.355469c0-1.104492-.895508-2-2-2Z"/>
      <path d="M32.219727,37.96875c.129883,0,.270508-.019531.389648-.040039.130859-.030273.260742-.070312.380859-.120117.119141-.040039.239258-.109375.339844-.179688.109375-.070312.219727-.160156.30957-.25.370117-.370117.580078-.889648.580078-1.410156,0-.530273-.209961-1.040039-.580078-1.419922-.75-.740234-2.080078-.740234-2.830078,0-.089844.089844-.179688.200195-.25.30957-.069336.100586-.129883.220703-.179688.34082-.049805.119141-.089844.25-.120117.379883-.019531.129883-.040039.259766-.040039.389648,0,.520508.219727,1.040039.589844,1.410156s.890625.589844,1.410156.589844Z"/>
      <path d="M50.765625,32.558594c-.749023-.310547-1.607422-.139648-2.179688.433594l-4.496094,4.496094-4.49707-4.496094c-.572266-.572266-1.430664-.742188-2.179688-.433594-.74707.30957-1.234375,1.039062-1.234375,1.847656v15.592773c0,1.104492.895508,2,2,2s2-.895508,2-2v-10.764648l2.49707,2.496094c.78125.78125,2.046875.78125,2.828125,0l2.496094-2.496094v10.764648c0,1.104492.895508,2,2,2s2-.895508,2-2v-15.592773c0-.808594-.487305-1.538086-1.234375-1.847656Z"/>
      <path d="M21.633789,33.663086c-.033203-.081055-.070312-.160156-.113281-.235352-.199219-.356445-.508789-.654297-.904297-.836914-.079102-.036133-.161133-.068359-.245117-.094727-.375-.115234-.758789-.116211-1.115234-.021484-.146484.040039-.288086.095703-.420898.166992-.401367.213867-.732422.56543-.915039,1.019531,0,.000977,0,.001953-.000977.001953l-6.237305,15.592773c-.09668.244141-.142578.495117-.143555.742188,0,.793945.475586,1.544922,1.257812,1.858398,1.02832.40918,2.19043-.089844,2.600586-1.114258l1.368164-3.420898h6.023438l1.368164,3.420898c.313477.78125,1.064453,1.257812,1.858398,1.257812.24707,0,.498047-.046875.742188-.143555,1.025391-.411133,1.524414-1.574219,1.114258-2.600586l-6.237305-15.592773ZM18.364502,43.321289l1.411865-3.530273,1.411865,3.530273h-2.82373Z"/>
    </g>
  </g>
</svg>
